<svg xmlns="http://www.w3.org/2000/svg" viewBox="0 0 64 64"><path d="M48 3.922c-7.357 0-13.639 4.146-16 9.929-2.361-5.783-8.643-9.929-16-9.929-10.015 0-16 8.644-16 17 0 8.589 5.326 17.755 15.83 27.242 7.738 6.989 15.59 11.577 15.668 11.623l.502.291.502-.291c.079-.046 7.93-4.634 15.668-11.623C58.674 38.677 64 29.511 64 20.922c0-8.356-5.985-17-16-17zM32 57.755C28.031 55.332 2 38.75 2 20.922c0-7.373 5.237-15 14-15 7.214 0 15 4.971 15 13h2c0-8.029 7.786-13 15-13 8.763 0 14 7.627 14 15 0 17.818-26.032 34.409-30 36.833z"/></svg>