<svg xmlns="http://www.w3.org/2000/svg" viewBox="0 0 294.08 294.08"><path d="M274.939 0H170.532c-5.22 0-10.441 1.74-13.921 5.22L5.22 156.611c-3.48 3.48-5.22 8.7-5.22 13.921 0 5.22 1.74 10.441 5.22 13.921L109.627 288.86c3.48 3.48 8.701 5.22 13.921 5.22 3.48 0 8.701-1.74 13.921-5.22L288.86 137.469c3.48-3.48 5.22-8.701 5.22-13.921V19.141C294.08 8.701 285.38 0 274.939 0zm0 127.029l-151.391 151.39h-1.74L15.66 172.272v-3.48l153.13-153.13v3.48h104.407c1.74 0 1.74 0 1.74 1.74l.002 106.147z"/><path d="M212.295 55.684c-6.96 6.96-6.96 17.401 0 24.362 3.48 3.48 6.96 5.22 12.181 5.22 5.22 0 8.701-1.74 12.181-5.22 6.96-6.96 6.96-17.401 0-24.362-6.961-6.961-17.402-6.961-24.362 0z"/></svg>