<svg xmlns="http://www.w3.org/2000/svg" viewBox="0 0 415.821 415.821"><path d="M321.754 390.167h-70.551c-37.413 0-72.689-13.896-100.481-39.551l-38.482-8.552c-7.483-1.069-12.827-8.552-12.827-16.034V161.411c0-6.414 4.276-12.827 10.689-14.965l67.344-23.517 34.206-70.551c7.483-16.034 24.586-26.724 43.827-26.724 26.724 0 48.103 21.379 48.103 48.103v63.068h40.62c39.551 0 71.62 32.068 71.62 71.62v88.723c0 27.793-12.827 54.516-34.206 72.689-17.104 12.827-37.414 20.31-59.862 20.31zM132.55 313.202l29.931 6.414c3.207 1.069 5.345 2.138 7.483 4.276 21.379 21.379 50.241 34.206 81.24 34.206h70.551c13.896 0 27.793-5.345 39.551-13.896 14.965-11.758 22.448-28.862 22.448-48.103v-88.723c0-21.379-18.172-39.551-39.551-39.551h-56.654c-8.552 0-16.034-7.483-16.034-16.034V72.689c0-8.552-7.483-16.034-16.034-16.034-6.414 0-11.758 3.207-13.896 8.552l-37.413 76.964c-2.138 4.276-5.345 6.414-9.621 8.552l-63.068 21.379v141.101h1.067zM65.206 338.857H16.034C7.483 338.857 0 331.374 0 322.823v-152.86c0-8.552 7.483-16.034 16.034-16.034h49.172c8.552 0 16.034 7.483 16.034 16.034v152.86c0 9.62-6.414 16.034-16.034 16.034zm-33.137-32.068h17.103V185.997H32.069v120.792z"/></svg>
