<svg xmlns="http://www.w3.org/2000/svg" viewBox="0 0 460.713 460.713"><path d="M344.09 407.04l.085 30.218c.037 12.968 10.56 23.455 23.52 23.455h.068c12.991-.037 23.492-10.598 23.455-23.588l-.085-30.085H344.09zM286.488 401.022l-.003 36.167c-.001 12.991 10.529 23.522 23.52 23.523h.002c12.989 0 23.521-10.53 23.521-23.52l.002-30.154h-29.941a27.236 27.236 0 0 1-17.101-6.016z"/><circle cx="91.124" cy="40.624" r="40.624"/><path d="M192.368 165.43l-61.55-7.221-40.252-39.995 38.18 20.017 14.077 1.651v-17.387c0-15.156-12.286-27.443-27.443-27.443H66.441c-15.156 0-27.443 12.287-27.443 27.443l-.483 314.63c-.037 12.99 10.464 23.551 23.455 23.588h.068c12.959 0 23.483-10.487 23.52-23.455l.492-173.897-.001-.066h10.144l.013 173.899c.001 12.99 10.533 23.521 23.523 23.52 12.99-.001 23.521-10.533 23.52-23.523-.016-209.227-.427-218.365-.427-218.365l-25.583-3.001c-7.824-.918-17.436-.732-23.064-11.127l-31.242-58.674 45.057 44.77a19.6 19.6 0 0 0 11.532 5.563l68.277 8.01c10.763 1.261 20.491-6.442 21.751-17.184 1.263-10.753-6.43-20.492-17.182-21.753z"/><circle cx="338.61" cy="40.624" r="40.624"/><path d="M411.805 301.04h-20.546V272c0-5.523-4.477-10-10-10h-3.113l9.796-60.998c.521-3.24.219-6.558-.876-9.651l-23.209-65.535 1.393 2.07 25.486 37.881v-43.272c0-15.156-12.287-27.443-27.443-27.443h-48.939c-15.156 0-27.443 12.287-27.443 27.443v6.973l-62.828 35.914a39.025 39.025 0 0 1 4.936 24.083c-1.298 11.068-7.095 20.507-15.342 26.726.96-.363 1.906-.796 2.826-1.321l70.407-40.247-.415 115.427c8.253-6.611 16.414-6.01 20.638-6.01V272c0-10.578 6.193-20.022 15.503-24.423l8.934-55.628-3.581-40.807-1.086-12.237 21.539 60.819L338.441 262h-4.307c-5.523 0-10 4.477-10 10v29.04h-20.545c-5.74 0-10.392 4.653-10.392 10.392v68.215c0 5.74 4.653 10.392 10.392 10.392h108.215c5.74 0 10.392-4.653 10.392-10.392v-68.215c.001-5.739-4.652-10.392-10.391-10.392zm-57.664-13.182c1.053.169 2.099.251 3.132.251 4.406 0 8.556-1.504 11.899-4.07h2.086v17h-27.124v-17h1.155a19.51 19.51 0 0 0 8.852 3.819z"/></svg>