<svg xmlns="http://www.w3.org/2000/svg" viewBox="0 0 388.923 388.923"><path d="M194.461 199.269c31.61 0 57.328-25.718 57.328-57.329 0-31.602-25.717-57.312-57.328-57.312-31.61 0-57.327 25.71-57.327 57.312.001 31.611 25.717 57.329 57.327 57.329z"/><path d="M114.461 284.294h160a3 3 0 0 0 3-3c0-37.121-18.449-71.521-47.001-87.638a2.997 2.997 0 0 0-3.64.536l-32.36 33.74-32.359-33.74a2.998 2.998 0 0 0-3.64-.536c-28.552 16.119-47.001 50.519-47.001 87.638a3.002 3.002 0 0 0 3.001 3zM388.674 127.633a5 5 0 0 0-2.493-2.903l-8.923-4.516a4.996 4.996 0 0 0-6.719 2.203l-17.236 34.059c-12.68-58.21-55.268-105.856-113.035-124.471-16.904-5.448-34.364-8.21-51.896-8.21-26.398 0-52.927 6.445-76.719 18.64-40.076 20.541-69.754 55.458-83.568 98.321a4.997 4.997 0 0 0 3.225 6.292l9.517 3.067a4.998 4.998 0 0 0 6.292-3.225c12.176-37.778 38.334-68.553 73.656-86.657C142.049 49.329 164.796 43.8 188.382 43.8c15.45 0 30.842 2.436 45.75 7.241 52.677 16.976 91.014 61.345 100.675 115.071l-38.338-19.402a5 5 0 0 0-6.719 2.204l-4.516 8.923a5 5 0 0 0 2.204 6.719l62.565 31.661a5 5 0 0 0 6.719-2.203l31.662-62.563a5.006 5.006 0 0 0 .29-3.818z"/><path d="M357.614 241.875l-9.517-3.067a4.996 4.996 0 0 0-6.293 3.225c-12.176 37.778-38.334 68.553-73.655 86.657-21.276 10.904-44.023 16.433-67.61 16.433-15.449 0-30.841-2.436-45.749-7.24-52.677-16.976-91.014-61.344-100.675-115.071l38.338 19.402a5 5 0 0 0 6.719-2.204l4.516-8.923a5 5 0 0 0-2.204-6.719L38.92 192.707a5 5 0 0 0-6.719 2.204L.538 257.474a5 5 0 0 0 2.204 6.719l8.923 4.516a5.01 5.01 0 0 0 3.816.29 5 5 0 0 0 2.903-2.493l17.236-34.059c12.68 58.21 55.269 105.856 113.035 124.471 16.903 5.448 34.363 8.21 51.895 8.21 26.398 0 52.928-6.445 76.72-18.64 40.076-20.54 69.754-55.458 83.568-98.321a4.997 4.997 0 0 0-3.224-6.292z"/></svg>