<svg xmlns="http://www.w3.org/2000/svg" viewBox="0 0 512 512"><path d="M315.733 136.533H281.6a8.53 8.53 0 0 0-8.533 8.533 8.53 8.53 0 0 0 8.533 8.533h34.133a8.53 8.53 0 0 0 8.533-8.533 8.53 8.53 0 0 0-8.533-8.533zM384 153.6a8.53 8.53 0 0 0 8.533-8.533 8.53 8.53 0 0 0-8.533-8.533h-34.133a8.53 8.53 0 0 0-8.533 8.533 8.53 8.53 0 0 0 8.533 8.533H384zM307.2 213.333v256c0 4.71 3.814 8.533 8.533 8.533s8.533-3.823 8.533-8.533V221.867H358.4v247.467c0 4.71 3.814 8.533 8.533 8.533s8.533-3.823 8.533-8.533v-256a8.53 8.53 0 0 0-8.533-8.533h-51.2a8.53 8.53 0 0 0-8.533 8.532zM51.2 469.333c0 4.71 3.814 8.533 8.533 8.533s8.533-3.823 8.533-8.533v-42.667H102.4v42.667c0 4.71 3.814 8.533 8.533 8.533s8.533-3.823 8.533-8.533v-51.2a8.53 8.53 0 0 0-8.533-8.533h-51.2a8.53 8.53 0 0 0-8.533 8.533v51.2zM196.267 477.867a8.53 8.53 0 0 0 8.533-8.533V281.6a8.53 8.53 0 0 0-8.533-8.533h-51.2a8.53 8.53 0 0 0-8.533 8.533v187.733c0 4.71 3.814 8.533 8.533 8.533s8.533-3.823 8.533-8.533v-179.2h34.133v179.2a8.532 8.532 0 0 0 8.534 8.534z"/><path d="M452.267 273.067h-51.2a8.53 8.53 0 0 0-8.533 8.533v187.733a8.53 8.53 0 0 0 8.533 8.533 8.53 8.53 0 0 0 8.533-8.533v-179.2h34.133v204.8H42.667c-14.592 0-25.6-11.008-25.6-25.6V128c0-4.71-3.814-8.533-8.533-8.533S0 123.29 0 128v341.333C0 493.261 18.739 512 42.667 512h409.6a8.53 8.53 0 0 0 8.533-8.533V281.6a8.53 8.53 0 0 0-8.533-8.533z"/><path d="M128 136.533H59.733a8.53 8.53 0 0 0-8.533 8.533 8.53 8.53 0 0 0 8.533 8.533H128a8.53 8.53 0 0 0 8.533-8.533 8.53 8.53 0 0 0-8.533-8.533zM102.4 51.2c0 9.412 7.654 17.067 17.067 17.067s17.067-7.654 17.067-17.067c0-9.412-7.654-17.067-17.067-17.067S102.4 41.788 102.4 51.2zM51.2 51.2c0 9.412 7.654 17.067 17.067 17.067 9.412 0 17.067-7.654 17.067-17.067 0-9.412-7.654-17.067-17.067-17.067S51.2 41.788 51.2 51.2zM153.6 51.2c0 9.412 7.654 17.067 17.067 17.067 9.412 0 17.067-7.654 17.067-17.067 0-9.412-7.654-17.067-17.067-17.067S153.6 41.788 153.6 51.2zM452.267 136.533h-34.133a8.53 8.53 0 0 0-8.533 8.533 8.53 8.53 0 0 0 8.533 8.533h34.133a8.53 8.53 0 0 0 8.533-8.533 8.53 8.53 0 0 0-8.533-8.533z"/><path d="M469.333 0H42.667C19.14 0 0 19.14 0 42.667v51.2a8.53 8.53 0 0 0 8.533 8.533h460.8a8.53 8.53 0 0 0 8.533-8.533 8.53 8.53 0 0 0-8.533-8.533H17.067V42.667c0-14.114 11.486-25.6 25.6-25.6h426.667c14.114 0 25.6 11.486 25.6 25.6v426.667c0 9.762-4.872 18.193-13.039 22.562-4.164 2.219-5.726 7.39-3.499 11.546 1.527 2.876 4.48 4.506 7.526 4.506a8.502 8.502 0 0 0 4.019-1.007c13.611-7.27 22.059-21.683 22.059-37.606V42.667C512 19.14 492.86 0 469.333 0z"/><path d="M221.867 349.867v119.467c0 4.71 3.814 8.533 8.533 8.533s8.533-3.823 8.533-8.533V358.4h34.133v110.933a8.53 8.53 0 0 0 8.533 8.533 8.53 8.53 0 0 0 8.533-8.533V349.867a8.53 8.53 0 0 0-8.533-8.533h-51.2a8.53 8.53 0 0 0-8.532 8.533z"/></svg>