<?xml version='1.0' encoding='iso-8859-1'?>
<!DOCTYPE svg PUBLIC '-//W3C//DTD SVG 1.1//EN' 'http://www.w3.org/Graphics/SVG/1.1/DTD/svg11.dtd'>
<svg version="1.1" xmlns="http://www.w3.org/2000/svg" viewBox="0 0 471 471" xmlns:xlink="http://www.w3.org/1999/xlink" enable-background="new 0 0 471 471">
  <g>
    <path d="m463.5,61.508h-456c-4.142,0-7.5,3.358-7.5,7.5v293.493c0,4.142 3.358,7.5 7.5,7.5h202.399v24.49h-54.065c-4.142,0-7.5,3.358-7.5,7.5s3.358,7.5 7.5,7.5h159.333c4.142,0 7.5-3.358 7.5-7.5s-3.358-7.5-7.5-7.5h-54.065v-24.49h202.398c4.142,0 7.5-3.358 7.5-7.5v-293.493c0-4.142-3.358-7.5-7.5-7.5zm-217.398,332.984h-21.203v-24.49h21.203v24.49zm209.898-39.491h-441v-278.493h441v278.493z"/>
    <path d="m29.5,328.218h412c2.761,0 5-2.239 5-5v-232.21c0-2.761-2.239-5-5-5h-412c-2.761,0-5,2.239-5,5v232.21c0,2.761 2.239,5 5,5zm5-232.21h402v222.21h-402v-222.21z"/>
    <path d="m424.801,337.657h-22c-2.761,0-5,2.239-5,5s2.239,5 5,5h22c2.761,0 5-2.239 5-5s-2.239-5-5-5z"/>
    <path d="m255.798,337.657h-40.596c-2.761,0-5,2.239-5,5s2.239,5 5,5h40.596c2.761,0 5-2.239 5-5s-2.238-5-5-5z"/>
    <path d="m441.503,337.659c-1.32,0-2.61,0.53-3.54,1.46-0.93,0.93-1.46,2.22-1.46,3.54s0.53,2.6 1.46,3.53c0.93,0.93 2.22,1.47 3.54,1.47 1.31,0 2.6-0.54 3.53-1.47s1.47-2.22 1.47-3.53c0-1.32-0.54-2.61-1.47-3.54-0.93-0.93-2.22-1.46-3.53-1.46z"/>
  </g>
</svg>
