<svg xmlns="http://www.w3.org/2000/svg" viewBox="0 0 512 512"><path d="M115.3 146.5h20.9v20.9h-20.9zM188.2 146.5h20.9v20.9h-20.9zM261.2 146.5h20.9v20.9h-20.9z"/><path d="M490.6 204.9H386.3V21.4c0-6.3-4.2-10.4-10.4-10.4H21.4C15.2 11 11 15.2 11 21.4v271.1c0 6.3 4.2 10.4 10.4 10.4H84V355c0 4.2 2.1 7.3 6.3 9.4 4.7 2.1 9.4 0 11.5-2.1l59.4-59.4h27.1v136.6c0 6.3 4.2 10.4 10.4 10.4h176.2l48 48c7.6 7.1 17.7 1.1 17.7-8.3v-40.7h50c6.3 0 10.4-4.2 10.4-10.4V215.3c0-6.2-4.2-10.4-10.4-10.4zM157 282.1c-3.1 0-5.2 1-7.3 3.1L104.8 330v-37.5c0-6.3-4.2-10.4-10.4-10.4H31.9V31.9h333.6v250.2H157zm323.1 147h-50c-6.3 0-10.4 4.2-10.4 10.4v26.1l-33.4-33.4c-2.1-2.1-4.2-3.1-7.3-3.1H209.1V302.9h166.8c6.3 0 10.4-4.2 10.4-10.4v-66.7h93.8v203.3z"/></svg>