<svg xmlns="http://www.w3.org/2000/svg" viewBox="0 0 490 490"><path d="M413.79 359.62l-16.006-53.386a6.602 6.602 0 0 0-8.22-4.427l-53.388 16.008a6.603 6.603 0 0 0-1.235 12.134l19.544 10.527a124.527 124.527 0 0 1-92.982 64.112v-218.31h39.926c4.893 6.227 12.488 10.231 21.022 10.231 14.764 0 26.733-11.97 26.733-26.735 0-14.764-11.97-26.733-26.733-26.733-8.534 0-16.129 4.003-21.022 10.231h-39.926v-45.564c22.353-7.03 38.614-27.946 38.614-52.59C300.117 24.726 275.392 0 245 0s-55.117 24.726-55.117 55.118c0 24.645 16.261 45.56 38.614 52.59v45.564h-39.926c-4.894-6.228-12.488-10.231-21.023-10.231-14.765 0-26.733 11.969-26.733 26.733 0 14.765 11.969 26.735 26.733 26.735 8.534 0 16.129-4.005 21.023-10.231h39.926v218.31a124.52 124.52 0 0 1-92.982-64.112l19.544-10.527a6.606 6.606 0 0 0 3.437-6.48 6.603 6.603 0 0 0-4.672-5.654l-53.387-16.008a6.602 6.602 0 0 0-8.219 4.427L76.21 359.62a6.602 6.602 0 0 0 2.15 7.013 6.61 6.61 0 0 0 7.303.695l20.696-11.148c12.876 24.526 31.982 43.426 55.268 58.651 40.322 26.362 62.435 41.202 71.527 64.839C234.861 484.11 237.648 490 245 490c7.351 0 10.139-5.89 11.846-10.33 9.093-23.637 31.205-38.477 71.527-64.839 23.286-15.225 42.392-34.125 55.269-58.651l20.695 11.148a6.607 6.607 0 0 0 7.303-.695 6.604 6.604 0 0 0 2.15-7.013zM245 77.229c-12.192 0-22.112-9.919-22.112-22.111 0-12.193 9.92-22.113 22.112-22.113 12.192 0 22.112 9.919 22.112 22.113 0 12.192-9.919 22.111-22.112 22.111z"/></svg>